<svg width="1rem" height="1rem" viewBox="0 0 56 61" fill="none" xmlns="http://www.w3.org/2000/svg">
<path d="M55.5015 0.0596924L50.3441 55.0209L27.9994 60.9403L5.65434 55.0209L0.498047 0.0596924H55.5015ZM45.1091 11.2352H27.9793H10.546L11.3798 17.8723H27.9793H28.9117L27.9793 18.2541L11.9865 24.8076L12.5168 31.2951L27.9793 31.3445L36.2667 31.3703L35.7362 40.0206L27.9792 42.1693V42.1626L27.9156 42.18L20.4243 40.3193L19.9697 34.9497H19.9449H12.9963H12.9718L13.8813 45.3157L27.9794 49.4176V49.4102L28.0049 49.4176L42.0274 45.3904L43.8463 24.8076H27.9794H27.9403L27.9794 24.7909L44.4276 17.8723L45.1091 11.2352Z" fill="currentColor"/>
</svg>
