<svg width="1rem" height="1rem" viewBox="0 0 50 50" fill="none" xmlns="http://www.w3.org/2000/svg">
<path fill-rule="evenodd" clip-rule="evenodd" d="M17.7494 38.2625C17.7494 38.2625 15.86 39.3619 19.0955 39.7333C23.0162 40.181 25.0188 40.1166 29.3381 39.2995C29.3381 39.2995 30.4752 40.0115 32.0625 40.6275C22.3772 44.7776 10.1431 40.3874 17.7494 38.2625ZM16.5655 32.8467C16.5655 32.8467 14.4459 34.4156 17.6842 34.7505C21.8725 35.183 25.1785 35.2183 30.9028 34.1169C30.9028 34.1169 31.6932 34.9191 32.9371 35.3574C21.2286 38.782 8.18846 35.627 16.5655 32.8467Z" fill="currentColor"/>
<path fill-rule="evenodd" clip-rule="evenodd" d="M26.5477 23.6556C28.9353 26.4039 25.9219 28.8756 25.9219 28.8756C25.9219 28.8756 31.9815 25.7481 29.1983 21.8302C26.5998 18.1783 24.6066 16.364 35.3958 10.1074C35.3958 10.1074 18.4596 14.3355 26.5477 23.6556Z" fill="currentColor"/>
<path fill-rule="evenodd" clip-rule="evenodd" d="M39.353 42.2722C39.353 42.2722 40.7516 43.4255 37.8123 44.3173C32.2231 46.0102 14.5451 46.5207 9.63461 44.3846C7.87071 43.6163 11.1802 42.5513 12.2214 42.3264C13.3073 42.0916 13.927 42.1343 13.927 42.1343C11.964 40.7521 1.23904 44.8491 8.48015 46.0245C28.2254 49.2261 44.474 44.5832 39.353 42.2722ZM18.6593 27.2376C18.6593 27.2376 9.66827 29.3737 15.4759 30.1502C17.9288 30.4781 22.8151 30.4026 27.3701 30.0205C31.0916 29.7082 34.8271 29.0401 34.8271 29.0401C34.8271 29.0401 33.5158 29.6027 32.5658 30.2503C23.4339 32.6524 5.79572 31.5337 10.874 29.0782C15.1676 27.0012 18.6593 27.2376 18.6593 27.2376ZM34.7897 36.2529C44.0718 31.4307 39.7802 26.7956 36.7839 27.4202C36.0513 27.5733 35.7226 27.7055 35.7226 27.7055C35.7226 27.7055 35.9959 27.2778 36.5155 27.094C42.4421 25.0112 46.9992 33.2385 34.6046 36.4967C34.6042 36.4967 34.7471 36.3678 34.7897 36.2529Z" fill="currentColor"/>
<path fill-rule="evenodd" clip-rule="evenodd" d="M29.1917 0C29.1917 0 34.3308 5.14243 24.316 13.0475C16.2845 19.3911 22.4849 23.007 24.3135 27.1399C19.6245 22.9101 16.1852 19.1859 18.4923 15.7207C21.8796 10.6341 31.2653 8.16732 29.1917 0Z" fill="currentColor"/>
<path fill-rule="evenodd" clip-rule="evenodd" d="M19.5663 49.3174C28.474 49.887 42.1555 49.001 42.4801 44.7852C42.4801 44.7852 41.8572 46.3832 35.1176 47.6508C27.5137 49.0822 18.1337 48.9156 12.5723 47.9976C12.5723 47.9976 13.7119 48.9406 19.5663 49.3174Z" fill="currentColor"/>
</svg>
