<svg width="1rem" height="1rem" viewBox="0 0 5996 5588" fill="none" xmlns="http://www.w3.org/2000/svg">
<path fill-rule="evenodd" clip-rule="evenodd" d="M3158.5 5464C4633.38 5464 5829 4268.38 5829 2793.5C5829 1318.62 4633.38 123 3158.5 123C1683.62 123 488 1318.62 488 2793.5C488 4268.38 1683.62 5464 3158.5 5464ZM3158.5 5587C4701.31 5587 5952 4336.31 5952 2793.5C5952 1250.69 4701.31 0 3158.5 0C1615.69 0 365 1250.69 365 2793.5C365 4336.31 1615.69 5587 3158.5 5587ZM3158.5 5030C4396.09 5030 5399 4028.49 5399 2793.5C5399 1558.51 4396.09 557 3158.5 557C1920.91 557 918 1558.51 918 2793.5C918 4028.49 1920.91 5030 3158.5 5030ZM3158.5 5153C4463.82 5153 5522 4096.62 5522 2793.5C5522 1490.38 4463.82 434 3158.5 434C1853.18 434 795 1490.38 795 2793.5C795 4096.62 1853.18 5153 3158.5 5153ZM66.2002 5464L2246.5 1413H2341.16H2481L2414.46 1536L223 5587H139.683H0L66.2002 5464ZM3218.21 0H3082L3140.52 123L5740.5 5588H5858.83H5995.5L5935.93 5465L3289 0H3218.21Z" fill="white"/>
<path d="M3449.5 76.5H5724.5" stroke="white" stroke-width="123"/>
<line x1="3001" y1="5525.5" x2="5794.1" y2="5525.5" stroke="white" stroke-width="123"/>
</svg>
